<svg xmlns="http://www.w3.org/2000/svg" xmlns:xlink="http://www.w3.org/1999/xlink" width="500" zoomAndPan="magnify" viewBox="0 0 375 374.999991" height="500" preserveAspectRatio="xMidYMid meet" version="1.0"><defs><clipPath id="3208fd1c1b"><path d="M 79 246 L 207 246 L 207 307 L 79 307 Z M 79 246 " clip-rule="nonzero"/></clipPath><clipPath id="9dab2f416b"><path d="M 88.292969 212.546875 L 209.890625 225.171875 L 201.445312 306.488281 L 79.847656 293.859375 Z M 88.292969 212.546875 " clip-rule="nonzero"/></clipPath><clipPath id="d6e8f83674"><path d="M 5 2 L 127 2 L 127 56 L 5 56 Z M 5 2 " clip-rule="nonzero"/></clipPath><clipPath id="51d343c6d5"><path d="M 9.292969 -33.453125 L 130.890625 -20.828125 L 122.445312 60.488281 L 0.847656 47.859375 Z M 9.292969 -33.453125 " clip-rule="nonzero"/></clipPath><clipPath id="c681814de8"><path d="M 0.851562 47.8125 L 122.449219 60.441406 L 135.929688 -69.363281 L 14.335938 -81.992188 Z M 0.851562 47.8125 " clip-rule="nonzero"/></clipPath><clipPath id="01669dc9b8"><rect x="0" width="128" y="0" height="61"/></clipPath><clipPath id="84d2ef335c"><path d="M 145 215 L 188 215 L 188 239 L 145 239 Z M 145 215 " clip-rule="nonzero"/></clipPath><clipPath id="338a5850aa"><path d="M 146.957031 214.316406 L 188.902344 216.519531 L 186.695312 258.464844 L 144.753906 256.257812 Z M 146.957031 214.316406 " clip-rule="nonzero"/></clipPath><clipPath id="eb0a536a96"><path d="M 146.957031 214.316406 L 188.902344 216.519531 L 186.695312 258.464844 L 144.753906 256.257812 Z M 146.957031 214.316406 " clip-rule="nonzero"/></clipPath><clipPath id="d774e81e71"><path d="M 144 254 L 187 254 L 187 259 L 144 259 Z M 144 254 " clip-rule="nonzero"/></clipPath><clipPath id="f81b4d7d71"><path d="M 146.957031 214.316406 L 188.902344 216.519531 L 186.695312 258.464844 L 144.753906 256.257812 Z M 146.957031 214.316406 " clip-rule="nonzero"/></clipPath><clipPath id="461ae38899"><path d="M 146.957031 214.316406 L 188.902344 216.519531 L 186.695312 258.464844 L 144.753906 256.257812 Z M 146.957031 214.316406 " clip-rule="nonzero"/></clipPath><clipPath id="71a2225589"><path d="M 176 220 L 183 220 L 183 231 L 176 231 Z M 176 220 " clip-rule="nonzero"/></clipPath><clipPath id="53629e62a8"><path d="M 146.957031 214.316406 L 188.902344 216.519531 L 186.695312 258.464844 L 144.753906 256.257812 Z M 146.957031 214.316406 " clip-rule="nonzero"/></clipPath><clipPath id="e9d692d59f"><path d="M 146.957031 214.316406 L 188.902344 216.519531 L 186.695312 258.464844 L 144.753906 256.257812 Z M 146.957031 214.316406 " clip-rule="nonzero"/></clipPath><clipPath id="68f1dc534f"><path d="M 148 218 L 184 218 L 184 258 L 148 258 Z M 148 218 " clip-rule="nonzero"/></clipPath><clipPath id="5a54a29bc6"><path d="M 146.957031 214.316406 L 188.902344 216.519531 L 186.695312 258.464844 L 144.753906 256.257812 Z M 146.957031 214.316406 " clip-rule="nonzero"/></clipPath><clipPath id="8d00946c8d"><path d="M 146.957031 214.316406 L 188.902344 216.519531 L 186.695312 258.464844 L 144.753906 256.257812 Z M 146.957031 214.316406 " clip-rule="nonzero"/></clipPath><clipPath id="2889e53d99"><path d="M 158 233 L 175 233 L 175 250 L 158 250 Z M 158 233 " clip-rule="nonzero"/></clipPath><clipPath id="0fa6ff3c30"><path d="M 146.957031 214.316406 L 188.902344 216.519531 L 186.695312 258.464844 L 144.753906 256.257812 Z M 146.957031 214.316406 " clip-rule="nonzero"/></clipPath><clipPath id="7ef8cfa287"><path d="M 146.957031 214.316406 L 188.902344 216.519531 L 186.695312 258.464844 L 144.753906 256.257812 Z M 146.957031 214.316406 " clip-rule="nonzero"/></clipPath><clipPath id="c771bec9b1"><path d="M 165 233 L 168 233 L 168 249 L 165 249 Z M 165 233 " clip-rule="nonzero"/></clipPath><clipPath id="19e044cf5e"><path d="M 146.957031 214.316406 L 188.902344 216.519531 L 186.695312 258.464844 L 144.753906 256.257812 Z M 146.957031 214.316406 " clip-rule="nonzero"/></clipPath><clipPath id="e3f21f96b9"><path d="M 146.957031 214.316406 L 188.902344 216.519531 L 186.695312 258.464844 L 144.753906 256.257812 Z M 146.957031 214.316406 " clip-rule="nonzero"/></clipPath><clipPath id="a5c18eb070"><path d="M 158 240 L 175 240 L 175 243 L 158 243 Z M 158 240 " clip-rule="nonzero"/></clipPath><clipPath id="2581ec4aad"><path d="M 146.957031 214.316406 L 188.902344 216.519531 L 186.695312 258.464844 L 144.753906 256.257812 Z M 146.957031 214.316406 " clip-rule="nonzero"/></clipPath><clipPath id="06817dbf78"><path d="M 146.957031 214.316406 L 188.902344 216.519531 L 186.695312 258.464844 L 144.753906 256.257812 Z M 146.957031 214.316406 " clip-rule="nonzero"/></clipPath><clipPath id="f218e453c1"><path d="M 105 220 L 139 220 L 139 254 L 105 254 Z M 105 220 " clip-rule="nonzero"/></clipPath><clipPath id="18c9f37248"><path d="M 103.945312 209.890625 L 144.390625 212.019531 L 142.183594 253.960938 L 101.738281 251.832031 Z M 103.945312 209.890625 " clip-rule="nonzero"/></clipPath><clipPath id="e7ef230cd9"><path d="M 103.945312 209.890625 L 144.390625 212.019531 L 142.183594 253.960938 L 101.738281 251.832031 Z M 103.945312 209.890625 " clip-rule="nonzero"/></clipPath><clipPath id="fe6c3a020b"><path d="M 103 210 L 143 210 L 143 235 L 103 235 Z M 103 210 " clip-rule="nonzero"/></clipPath><clipPath id="526bb659bc"><path d="M 103.945312 209.890625 L 144.390625 212.019531 L 142.183594 253.960938 L 101.738281 251.832031 Z M 103.945312 209.890625 " clip-rule="nonzero"/></clipPath><clipPath id="49b71e5d77"><path d="M 103.945312 209.890625 L 144.390625 212.019531 L 142.183594 253.960938 L 101.738281 251.832031 Z M 103.945312 209.890625 " clip-rule="nonzero"/></clipPath><clipPath id="0fde9ac133"><path d="M 168 244 L 296 244 L 296 307 L 168 307 Z M 168 244 " clip-rule="nonzero"/></clipPath><clipPath id="c482bd7d1e"><path d="M 163.652344 225.378906 L 284.910156 209.84375 L 295.296875 290.933594 L 174.039062 306.464844 Z M 163.652344 225.378906 " clip-rule="nonzero"/></clipPath><clipPath id="2352b70a04"><path d="M 0 2 L 122 2 L 122 57 L 0 57 Z M 0 2 " clip-rule="nonzero"/></clipPath><clipPath id="d904bd749e"><path d="M -4.347656 -18.621094 L 116.910156 -34.15625 L 127.296875 46.933594 L 6.039062 62.464844 Z M -4.347656 -18.621094 " clip-rule="nonzero"/></clipPath><clipPath id="f91d0a69f5"><path d="M 6.03125 62.417969 L 127.292969 46.886719 L 110.710938 -82.554688 L -10.546875 -67.023438 Z M 6.03125 62.417969 " clip-rule="nonzero"/></clipPath><clipPath id="3ab36db8ff"><rect x="0" width="128" y="0" height="63"/></clipPath><clipPath id="f13f149e9e"><path d="M 197 223 L 229 223 L 229 258 L 197 258 Z M 197 223 " clip-rule="nonzero"/></clipPath><clipPath id="f1880e471e"><path d="M 189.800781 217.703125 L 232.472656 215.0625 L 234.972656 255.488281 L 192.304688 258.125 Z M 189.800781 217.703125 " clip-rule="nonzero"/></clipPath><clipPath id="246e9f4896"><path d="M 189.800781 217.703125 L 232.472656 215.0625 L 234.972656 255.488281 L 192.304688 258.125 Z M 189.800781 217.703125 " clip-rule="nonzero"/></clipPath><clipPath id="f482d89c0d"><path d="M 190 216 L 234 216 L 234 239 L 190 239 Z M 190 216 " clip-rule="nonzero"/></clipPath><clipPath id="df284cfe13"><path d="M 189.800781 217.703125 L 232.472656 215.0625 L 234.972656 255.488281 L 192.304688 258.125 Z M 189.800781 217.703125 " clip-rule="nonzero"/></clipPath><clipPath id="fd399c9fb3"><path d="M 189.800781 217.703125 L 232.472656 215.0625 L 234.972656 255.488281 L 192.304688 258.125 Z M 189.800781 217.703125 " clip-rule="nonzero"/></clipPath><clipPath id="bbca9d0f50"><path d="M 196 219 L 202 219 L 202 229 L 196 229 Z M 196 219 " clip-rule="nonzero"/></clipPath><clipPath id="7cb756448a"><path d="M 189.800781 217.703125 L 232.472656 215.0625 L 234.972656 255.488281 L 192.304688 258.125 Z M 189.800781 217.703125 " clip-rule="nonzero"/></clipPath><clipPath id="38d407cbe3"><path d="M 189.800781 217.703125 L 232.472656 215.0625 L 234.972656 255.488281 L 192.304688 258.125 Z M 189.800781 217.703125 " clip-rule="nonzero"/></clipPath><clipPath id="0735f966d2"><path d="M 230 212 L 238 212 L 238 217 L 230 217 Z M 230 212 " clip-rule="nonzero"/></clipPath><clipPath id="b29d75f861"><path d="M 229.371094 213.179688 L 270.070312 206.472656 L 276.777344 247.175781 L 236.078125 253.882812 Z M 229.371094 213.179688 " clip-rule="nonzero"/></clipPath><clipPath id="f0b68878b2"><path d="M 229.371094 213.179688 L 236.769531 211.960938 L 237.988281 219.363281 L 230.589844 220.582031 Z M 229.371094 213.179688 " clip-rule="nonzero"/></clipPath><clipPath id="c3c622f72c"><path d="M 230 213 L 238 213 L 238 221 L 230 221 Z M 230 213 " clip-rule="nonzero"/></clipPath><clipPath id="9041537e09"><path d="M 229.371094 213.179688 L 270.070312 206.472656 L 276.777344 247.175781 L 236.078125 253.882812 Z M 229.371094 213.179688 " clip-rule="nonzero"/></clipPath><clipPath id="3dc51ee652"><path d="M 229.371094 213.179688 L 236.769531 211.960938 L 237.988281 219.363281 L 230.589844 220.582031 Z M 229.371094 213.179688 " clip-rule="nonzero"/></clipPath><clipPath id="f0b8b398e5"><path d="M 120.699219 62.972656 L 258.699219 62.972656 L 258.699219 226.472656 L 120.699219 226.472656 Z M 120.699219 62.972656 " clip-rule="nonzero"/></clipPath><clipPath id="c9b5e5cf71"><path d="M 91 0.972656 L 122 0.972656 L 122 58 L 91 58 Z M 91 0.972656 " clip-rule="nonzero"/></clipPath><clipPath id="34a3d08125"><path d="M 94 34 L 138.699219 34 L 138.699219 62 L 94 62 Z M 94 34 " clip-rule="nonzero"/></clipPath><clipPath id="f57b4a453b"><path d="M 92 50 L 138.699219 50 L 138.699219 66 L 92 66 Z M 92 50 " clip-rule="nonzero"/></clipPath><clipPath id="f7d421d109"><path d="M 18 0.972656 L 48 0.972656 L 48 58 L 18 58 Z M 18 0.972656 " clip-rule="nonzero"/></clipPath><clipPath id="0feef29219"><path d="M 0.898438 50 L 48 50 L 48 66 L 0.898438 66 Z M 0.898438 50 " clip-rule="nonzero"/></clipPath><clipPath id="26b2975c88"><path d="M 60 106 L 79 106 L 79 164.320312 L 60 164.320312 Z M 60 106 " clip-rule="nonzero"/></clipPath><clipPath id="fb2746bfb8"><rect x="0" width="139" y="0" height="165"/></clipPath></defs><g clip-path="url(#3208fd1c1b)"><g clip-path="url(#9dab2f416b)"><g transform="matrix(1, 0, 0, 1, 79, 246)"><g clip-path="url(#01669dc9b8)"><g clip-path="url(#d6e8f83674)"><g clip-path="url(#51d343c6d5)"><g clip-path="url(#c681814de8)"><path fill="#192de3" d="M 114.472656 13.472656 C 116.851562 16.171875 115.714844 21.332031 121.003906 22.519531 C 116.042969 22.425781 115.386719 17.195312 113.628906 14.5 C 113.117188 13.714844 112.21875 13.265625 111.28125 13.304688 L 98.933594 13.835938 C 98.488281 13.851562 98.253906 14.378906 98.542969 14.71875 C 101.496094 18.226562 104.898438 20.691406 109.929688 19.347656 C 105.195312 21.742188 101.085938 19.109375 97.125 15.28125 C 96.40625 14.585938 95.40625 14.261719 94.414062 14.390625 C 88.300781 15.183594 82.496094 15.105469 77.125 13.8125 C 77.835938 15.945312 79.878906 16.621094 79.878906 16.621094 C 85.976562 18.488281 88.730469 19.5625 90.496094 23.117188 C 92.261719 26.667969 94.695312 27.914062 103.164062 28.234375 C 109.441406 24.429688 114.097656 25.734375 114.097656 25.734375 C 109.757812 24.984375 105.742188 28.296875 105.742188 28.296875 C 116.808594 28.320312 119.445312 33.761719 119.445312 33.761719 C 116.691406 30.5 109.804688 28.660156 104.777344 29.488281 C 99.746094 30.3125 93.773438 29.578125 93.773438 29.578125 C 93.773438 29.578125 95.550781 35.300781 100.078125 36.675781 C 107.878906 38.386719 109.132812 41.4375 109.132812 41.4375 C 107.210938 39.644531 104.710938 38.414062 101.53125 37.839844 C 104.441406 40.835938 103.65625 44.59375 103.65625 44.59375 C 103.105469 38.019531 99.507812 37.757812 94.863281 35.140625 C 92.730469 33.941406 87.988281 21.28125 81.066406 20.339844 C 74.902344 19.5 72.273438 16.332031 71.769531 15.648438 C 71.0625 17.796875 70.273438 22.214844 73.640625 26.367188 C 78.324219 32.132812 82.570312 33.164062 83.03125 36.835938 C 83.492188 40.507812 81.910156 42.785156 90.707031 44.878906 C 90.707031 44.878906 96.425781 47.410156 98.269531 51.5625 C 98.269531 51.5625 94.566406 46.683594 89.820312 45.855469 C 85.074219 45.023438 83.109375 43.414062 83.109375 43.414062 C 83.109375 43.414062 82.71875 50.398438 87.125 52.875 C 87.125 52.875 81.113281 50.171875 81.558594 41.566406 C 82.003906 32.964844 70.375 30.800781 69.050781 26.226562 C 69.050781 26.226562 63.679688 35.21875 66.183594 41.375 C 68.691406 47.535156 75.332031 46.316406 78.332031 55.832031 C 78.265625 55.632812 76.324219 49.890625 69.023438 46.503906 C 62.332031 43.398438 63.015625 33.40625 66.785156 24.753906 C 66.785156 24.753906 67.378906 23.917969 66.460938 21.40625 C 65.542969 18.894531 65.554688 15.527344 65.554688 15.527344 C 65.554688 15.527344 64.875 18.824219 63.460938 21.09375 C 62.042969 23.363281 62.457031 24.304688 62.457031 24.304688 C 64.363281 33.546875 62.980469 43.464844 55.796875 45.128906 C 47.953125 46.945312 44.875 52.164062 44.769531 52.347656 C 49.660156 43.648438 55.910156 46.207031 59.625 40.695312 C 63.34375 35.183594 59.933594 25.277344 59.933594 25.277344 C 57.699219 29.484375 45.875 29.210938 44.542969 37.722656 C 43.207031 46.238281 36.769531 47.648438 36.769531 47.648438 C 41.589844 46.125 42.644531 39.210938 42.644531 39.210938 C 42.644531 39.210938 40.390625 40.382812 35.574219 40.21875 C 30.761719 40.058594 26.132812 44.070312 26.132812 44.070312 C 28.789062 40.386719 34.90625 39.082031 34.90625 39.082031 C 43.949219 38.84375 42.867188 36.285156 44.070312 32.789062 C 45.277344 29.289062 49.644531 29.152344 55.414062 24.472656 C 59.5625 21.101562 59.699219 16.617188 59.445312 14.367188 C 58.8125 14.933594 55.589844 17.492188 49.386719 17.050781 C 42.414062 16.550781 35.175781 27.960938 32.839844 28.699219 C 27.757812 30.308594 24.183594 29.824219 22.292969 36.144531 C 22.292969 36.144531 22.296875 32.304688 25.761719 29.96875 C 22.53125 29.878906 19.832031 30.570312 17.582031 31.929688 C 17.582031 31.929688 19.4375 29.199219 27.421875 29.128906 C 32.136719 28.714844 35.050781 23.480469 35.050781 23.480469 C 35.050781 23.480469 29.054688 22.96875 24.300781 21.128906 C 19.550781 19.289062 12.429688 19.671875 9.070312 22.300781 C 9.070312 22.300781 12.769531 17.515625 23.601562 19.765625 C 23.601562 19.765625 20.351562 15.699219 15.949219 15.542969 C 15.949219 15.542969 20.777344 15.21875 26.136719 20.234375 C 34.488281 21.664062 37.128906 20.945312 39.585938 17.828125 C 42.046875 14.714844 44.960938 14.230469 51.3125 13.652344 C 51.3125 13.652344 53.449219 13.414062 54.585938 11.472656 C 49.0625 11.632812 43.363281 10.515625 37.542969 8.484375 C 36.597656 8.152344 35.554688 8.269531 34.710938 8.800781 C 30.046875 11.730469 25.484375 13.460938 21.34375 10.148438 C 25.988281 12.496094 29.824219 10.78125 33.4375 7.957031 C 33.789062 7.683594 33.671875 7.121094 33.238281 7.011719 L 21.257812 3.957031 C 20.351562 3.722656 19.378906 3.976562 18.71875 4.640625 C 16.445312 6.917969 14.726562 11.90625 9.851562 10.976562 C 15.269531 10.902344 15.21875 5.617188 18.105469 3.460938 C 13.320312 3.203125 9.042969 4.238281 5.167969 6.316406 C 18.898438 -3.921875 44.085938 9.945312 54.855469 7.773438 C 55.425781 7.660156 56.007812 7.625 56.589844 7.683594 L 63.210938 8.371094 L 65.824219 9.710938 L 66.492188 9.78125 L 69.324219 9.007812 L 75.945312 9.695312 C 76.523438 9.753906 77.085938 9.910156 77.621094 10.136719 C 87.714844 14.476562 115.21875 6.082031 126.550781 18.921875 C 123.179688 16.09375 119.207031 14.199219 114.472656 13.472656 Z M 114.472656 13.472656 " fill-opacity="1" fill-rule="nonzero"/></g></g></g></g></g></g></g><g clip-path="url(#84d2ef335c)"><g clip-path="url(#338a5850aa)"><g clip-path="url(#eb0a536a96)"><path fill="#ff6949" d="M 185.328125 238.222656 C 184.804688 238.195312 184.292969 237.972656 183.910156 237.5625 L 167.503906 220.582031 L 149.402344 235.738281 C 148.5625 236.476562 147.246094 236.402344 146.488281 235.558594 C 146.113281 235.140625 145.925781 234.605469 145.957031 234.046875 C 145.984375 233.488281 146.234375 232.976562 146.648438 232.605469 L 167.316406 215.636719 C 167.59375 215.410156 168 215.429688 168.253906 215.6875 L 186.964844 234.71875 C 187.359375 235.152344 187.550781 235.6875 187.523438 236.246094 C 187.496094 236.804688 187.25 237.320312 186.835938 237.695312 C 186.410156 238.078125 185.863281 238.25 185.328125 238.222656 Z M 167.589844 218.941406 C 167.761719 218.953125 167.929688 219.023438 168.054688 219.15625 L 184.914062 236.605469 C 184.917969 236.609375 184.921875 236.613281 184.925781 236.617188 C 185.183594 236.898438 185.625 236.917969 185.90625 236.664062 C 186.046875 236.539062 186.128906 236.367188 186.136719 236.179688 C 186.144531 235.992188 186.082031 235.8125 185.957031 235.671875 L 167.707031 217.109375 L 147.550781 233.65625 C 147.433594 233.765625 147.351562 233.9375 147.339844 234.121094 C 147.332031 234.308594 147.394531 234.488281 147.519531 234.628906 C 147.773438 234.914062 148.214844 234.9375 148.5 234.6875 L 167.109375 219.105469 C 167.25 218.988281 167.421875 218.933594 167.589844 218.941406 Z M 167.589844 218.941406 " fill-opacity="1" fill-rule="nonzero"/></g></g></g><g clip-path="url(#d774e81e71)"><g clip-path="url(#f81b4d7d71)"><g clip-path="url(#461ae38899)"><path fill="#ff6949" d="M 185.679688 258.105469 L 145.496094 255.992188 C 145.113281 255.96875 144.820312 255.644531 144.839844 255.261719 C 144.859375 254.878906 145.1875 254.585938 145.570312 254.605469 L 185.75 256.71875 C 186.132812 256.738281 186.425781 257.066406 186.40625 257.449219 C 186.386719 257.832031 186.0625 258.125 185.679688 258.105469 Z M 185.679688 258.105469 " fill-opacity="1" fill-rule="nonzero"/></g></g></g><g clip-path="url(#71a2225589)"><g clip-path="url(#53629e62a8)"><g clip-path="url(#e9d692d59f)"><path fill="#ff6949" d="M 180.910156 230.28125 C 180.742188 230.273438 180.574219 230.203125 180.453125 230.074219 L 176.496094 226.050781 C 176.359375 225.910156 176.285156 225.722656 176.296875 225.527344 L 176.546875 220.804688 C 176.566406 220.421875 176.890625 220.128906 177.273438 220.148438 L 181.429688 220.367188 C 181.8125 220.386719 182.109375 220.710938 182.085938 221.09375 L 181.640625 229.625 C 181.625 229.898438 181.449219 230.140625 181.191406 230.238281 C 181.101562 230.273438 181.003906 230.285156 180.910156 230.28125 Z M 177.699219 225.296875 L 180.335938 227.976562 L 180.667969 221.714844 L 177.894531 221.570312 Z M 177.699219 225.296875 " fill-opacity="1" fill-rule="nonzero"/></g></g></g><g clip-path="url(#68f1dc534f)"><g clip-path="url(#5a54a29bc6)"><g clip-path="url(#8d00946c8d)"><path fill="#ff6949" d="M 181.519531 257.886719 L 149.652344 256.210938 C 149.269531 256.1875 148.976562 255.863281 148.996094 255.480469 L 150.148438 233.59375 C 150.15625 233.402344 150.246094 233.222656 150.394531 233.097656 L 167.109375 219.105469 C 167.390625 218.871094 167.800781 218.894531 168.054688 219.15625 L 183.207031 234.839844 C 183.339844 234.976562 183.410156 235.164062 183.402344 235.355469 L 182.25 257.230469 C 182.230469 257.613281 181.902344 257.90625 181.519531 257.886719 Z M 150.417969 254.859375 L 180.902344 256.464844 L 182 235.585938 L 167.503906 220.582031 L 151.515625 233.96875 Z M 150.417969 254.859375 " fill-opacity="1" fill-rule="nonzero"/></g></g></g><g clip-path="url(#2889e53d99)"><g clip-path="url(#0fa6ff3c30)"><g clip-path="url(#7ef8cfa287)"><path fill="#ff6949" d="M 172.953125 249.097656 L 159.097656 248.371094 C 158.714844 248.347656 158.417969 248.023438 158.441406 247.640625 L 159.167969 233.785156 C 159.1875 233.402344 159.515625 233.109375 159.898438 233.128906 L 173.753906 233.855469 C 174.136719 233.875 174.429688 234.203125 174.410156 234.585938 L 173.679688 248.441406 C 173.660156 248.824219 173.335938 249.117188 172.953125 249.097656 Z M 159.863281 247.019531 L 172.332031 247.675781 L 172.988281 235.207031 L 160.519531 234.550781 Z M 159.863281 247.019531 " fill-opacity="1" fill-rule="nonzero"/></g></g></g><g clip-path="url(#c771bec9b1)"><g clip-path="url(#19e044cf5e)"><g clip-path="url(#e3f21f96b9)"><path fill="#ff6949" d="M 166.023438 248.734375 C 165.640625 248.714844 165.347656 248.386719 165.367188 248.003906 L 166.097656 234.148438 C 166.117188 233.765625 166.445312 233.472656 166.824219 233.492188 C 167.207031 233.511719 167.503906 233.839844 167.484375 234.222656 L 166.753906 248.078125 C 166.734375 248.460938 166.40625 248.753906 166.023438 248.734375 Z M 166.023438 248.734375 " fill-opacity="1" fill-rule="nonzero"/></g></g></g><g clip-path="url(#a5c18eb070)"><g clip-path="url(#2581ec4aad)"><g clip-path="url(#06817dbf78)"><path fill="#ff6949" d="M 173.316406 242.171875 L 159.460938 241.441406 C 159.078125 241.421875 158.785156 241.09375 158.804688 240.710938 C 158.824219 240.328125 159.152344 240.035156 159.535156 240.054688 L 173.390625 240.785156 C 173.773438 240.804688 174.066406 241.132812 174.046875 241.515625 C 174.027344 241.898438 173.699219 242.191406 173.316406 242.171875 Z M 173.316406 242.171875 " fill-opacity="1" fill-rule="nonzero"/></g></g></g><g clip-path="url(#f218e453c1)"><g clip-path="url(#18c9f37248)"><g clip-path="url(#e7ef230cd9)"><path fill="#ff6949" d="M 106.761719 234.988281 L 105.910156 251.113281 C 105.890625 251.519531 106.203125 251.867188 106.609375 251.886719 L 123.914062 252.796875 L 124.679688 238.199219 L 132.808594 238.625 L 132.042969 253.226562 L 136.878906 253.480469 C 137.285156 253.5 137.628906 253.1875 137.648438 252.785156 L 138.5 236.660156 L 123.46875 220.035156 Z M 119.1875 244.730469 L 111.851562 244.34375 L 112.210938 237.542969 L 119.546875 237.929688 Z M 119.1875 244.730469 " fill-opacity="1" fill-rule="nonzero"/></g></g></g><g clip-path="url(#fe6c3a020b)"><g clip-path="url(#526bb659bc)"><g clip-path="url(#49b71e5d77)"><path fill="#ff6949" d="M 142.019531 231.03125 L 123.9375 210.945312 L 114.464844 219.472656 L 114.671875 215.511719 C 114.71875 214.585938 114.007812 213.796875 113.082031 213.746094 C 112.15625 213.699219 111.367188 214.410156 111.320312 215.335938 L 110.933594 222.648438 L 103.851562 229.023438 C 102.988281 229.800781 102.917969 231.125 103.695312 231.988281 C 104.082031 232.417969 104.609375 232.652344 105.144531 232.679688 C 105.679688 232.707031 106.226562 232.53125 106.660156 232.144531 L 123.628906 216.875 L 138.898438 233.839844 C 139.675781 234.703125 141 234.769531 141.863281 233.996094 C 142.722656 233.21875 142.792969 231.890625 142.019531 231.03125 Z M 142.019531 231.03125 " fill-opacity="1" fill-rule="nonzero"/></g></g></g><g clip-path="url(#0fde9ac133)"><g clip-path="url(#c482bd7d1e)"><g transform="matrix(1, 0, 0, 1, 168, 244)"><g clip-path="url(#3ab36db8ff)"><g clip-path="url(#2352b70a04)"><g clip-path="url(#d904bd749e)"><g clip-path="url(#f91d0a69f5)"><path fill="#192de3" d="M 108.777344 2.988281 C 111.710938 5.074219 111.789062 10.359375 117.207031 10.304688 C 112.355469 11.347656 110.519531 6.402344 108.195312 4.183594 C 107.515625 3.535156 106.539062 3.304688 105.636719 3.558594 L 93.734375 6.898438 C 93.304688 7.019531 93.199219 7.582031 93.558594 7.847656 C 97.238281 10.585938 101.113281 12.207031 105.703125 9.75 C 101.640625 13.164062 97.035156 11.542969 92.304688 8.722656 C 91.445312 8.210938 90.402344 8.121094 89.464844 8.472656 C 83.695312 10.644531 78.023438 11.898438 72.5 11.867188 C 73.679688 13.78125 75.824219 13.972656 75.824219 13.972656 C 82.1875 14.394531 85.113281 14.808594 87.644531 17.863281 C 90.175781 20.921875 92.832031 21.574219 101.148438 19.945312 C 106.386719 14.808594 111.222656 15.015625 111.222656 15.015625 C 106.824219 15.277344 103.671875 19.417969 103.671875 19.417969 C 114.449219 16.910156 118.261719 21.605469 118.261719 21.605469 C 114.835938 19.058594 107.710938 18.84375 103.003906 20.796875 C 98.296875 22.753906 92.316406 23.40625 92.316406 23.40625 C 92.316406 23.40625 95.351562 28.570312 100.078125 28.871094 C 108.0625 28.75 109.980469 31.433594 109.980469 31.433594 C 107.699219 30.128906 104.984375 29.503906 101.757812 29.671875 C 105.273438 31.925781 105.371094 35.761719 105.371094 35.761719 C 103.332031 29.488281 99.769531 30.058594 94.648438 28.574219 C 92.296875 27.890625 84.785156 16.652344 77.832031 17.320312 C 71.636719 17.910156 68.355469 15.429688 67.707031 14.878906 C 67.511719 17.132812 67.753906 21.613281 71.984375 24.882812 C 77.859375 29.425781 82.230469 29.457031 83.519531 32.925781 C 84.808594 36.394531 83.789062 38.976562 92.832031 39 C 92.832031 39 98.980469 40.15625 101.722656 43.777344 C 101.722656 43.777344 97 39.875 92.191406 40.152344 C 87.382812 40.433594 85.097656 39.316406 85.097656 39.316406 C 85.097656 39.316406 86.316406 46.203125 91.175781 47.605469 C 91.175781 47.605469 84.703125 46.351562 83.167969 37.871094 C 81.628906 29.394531 69.816406 29.949219 67.480469 25.800781 C 67.480469 25.800781 64.308594 35.78125 68.160156 41.203125 C 72.007812 46.625 78.191406 43.917969 83.292969 52.5 C 83.179688 52.316406 79.976562 47.171875 72.09375 45.542969 C 64.871094 44.050781 63.25 34.171875 64.9375 24.886719 C 64.9375 24.886719 65.328125 23.933594 63.855469 21.699219 C 62.386719 19.464844 61.628906 16.183594 61.628906 16.183594 C 61.628906 16.183594 61.722656 19.550781 60.863281 22.082031 C 60.007812 24.617188 60.621094 25.4375 60.621094 25.4375 C 64.59375 34 65.515625 43.96875 58.902344 47.234375 C 51.683594 50.796875 49.882812 56.582031 49.820312 56.785156 C 52.59375 47.199219 59.261719 48.257812 61.617188 42.042969 C 63.976562 35.824219 58.390625 26.964844 58.390625 26.964844 C 57.179688 31.570312 45.605469 34.007812 46.253906 42.601562 C 46.902344 51.191406 40.960938 54.039062 40.960938 54.039062 C 45.304688 51.453125 44.75 44.484375 44.75 44.484375 C 44.75 44.484375 42.820312 46.140625 38.097656 47.082031 C 33.371094 48.023438 29.785156 52.992188 29.785156 52.992188 C 31.527344 48.796875 37.1875 46.128906 37.1875 46.128906 C 45.933594 43.824219 44.292969 41.585938 44.667969 37.902344 C 45.039062 34.222656 49.261719 33.089844 53.804688 27.214844 C 57.074219 22.984375 56.175781 18.585938 55.417969 16.453125 C 54.933594 17.148438 52.378906 20.378906 46.238281 21.367188 C 39.339844 22.476562 34.902344 35.242188 32.796875 36.496094 C 28.21875 39.222656 24.628906 39.570312 24.234375 46.15625 C 24.234375 46.15625 23.359375 42.417969 26.199219 39.347656 C 23.03125 40 20.5625 41.289062 18.683594 43.128906 C 18.683594 43.128906 19.863281 40.046875 27.621094 38.152344 C 32.117188 36.671875 33.753906 30.90625 33.753906 30.90625 C 33.753906 30.90625 27.800781 31.785156 22.753906 31.078125 C 17.707031 30.371094 10.863281 32.375 8.191406 35.703125 C 8.191406 35.703125 10.699219 30.199219 21.757812 29.910156 C 21.757812 29.910156 17.667969 26.695312 13.34375 27.550781 C 13.34375 27.550781 17.96875 26.132812 24.335938 29.785156 C 32.792969 29.265625 35.199219 27.960938 36.878906 24.367188 C 38.558594 20.773438 41.285156 19.632812 47.335938 17.621094 C 47.335938 17.621094 49.363281 16.898438 50.023438 14.746094 C 44.683594 16.167969 38.882812 16.382812 32.75 15.738281 C 31.753906 15.632812 30.765625 15.984375 30.0625 16.695312 C 26.195312 20.617188 22.152344 23.34375 17.359375 21.066406 C 22.421875 22.285156 25.761719 19.742188 28.632812 16.164062 C 28.914062 15.816406 28.667969 15.296875 28.222656 15.289062 L 15.863281 15.058594 C 14.925781 15.039062 14.039062 15.507812 13.542969 16.304688 C 11.851562 19.042969 11.320312 24.289062 6.363281 24.5 C 11.621094 23.1875 10.363281 18.054688 12.675781 15.296875 C 7.960938 16.140625 4.035156 18.128906 0.738281 21.039062 C 11.757812 7.929688 39.453125 15.664062 49.441406 11.085938 C 49.96875 10.84375 50.53125 10.675781 51.105469 10.601562 L 57.710938 9.757812 L 60.558594 10.460938 L 61.226562 10.375 L 63.808594 8.976562 L 70.410156 8.128906 C 70.988281 8.054688 71.570312 8.074219 72.144531 8.175781 C 82.960938 10.089844 107.8125 -4.375 121.78125 5.53125 C 117.855469 3.550781 113.554688 2.613281 108.777344 2.988281 Z M 108.777344 2.988281 " fill-opacity="1" fill-rule="nonzero"/></g></g></g></g></g></g></g><g clip-path="url(#f13f149e9e)"><g clip-path="url(#f1880e471e)"><g clip-path="url(#246e9f4896)"><path fill="#ff6949" d="M 227.449219 236.011719 Z M 227.449219 236.011719 L 211.625 223.65625 L 197.441406 237.875 L 198.613281 256.863281 C 198.644531 257.355469 199.066406 257.722656 199.554688 257.695312 L 208.9375 257.113281 L 208.421875 248.789062 C 208.390625 248.296875 208.757812 247.875 209.25 247.847656 L 216.957031 247.367188 C 217.445312 247.339844 217.863281 247.710938 217.894531 248.199219 L 218.410156 256.527344 L 227.792969 255.945312 C 228.285156 255.917969 228.652344 255.5 228.621094 255.007812 L 227.445312 236.011719 Z M 197.441406 237.875 Z M 197.441406 237.875 " fill-opacity="1" fill-rule="nonzero"/></g></g></g><g clip-path="url(#f482d89c0d)"><g clip-path="url(#df284cfe13)"><g clip-path="url(#fd399c9fb3)"><path fill="#ff6949" d="M 211.089844 216.390625 L 190.96875 236.558594 L 193.367188 238.949219 L 211.449219 220.824219 L 231.625 236.582031 L 233.707031 233.914062 L 211.257812 216.382812 L 211.183594 216.484375 Z M 211.089844 216.390625 " fill-opacity="1" fill-rule="nonzero"/></g></g></g><g clip-path="url(#bbca9d0f50)"><g clip-path="url(#7cb756448a)"><g clip-path="url(#38d407cbe3)"><path fill="#ff6949" d="M 196.335938 220.027344 L 201.730469 219.695312 L 201.882812 222.894531 L 196.832031 228.058594 Z M 196.335938 220.027344 " fill-opacity="1" fill-rule="nonzero"/></g></g></g><g clip-path="url(#0735f966d2)"><g clip-path="url(#b29d75f861)"><g clip-path="url(#f0b68878b2)"><path fill="#ff6949" d="M 237.019531 215.335938 L 233.253906 212.636719 C 233.144531 212.558594 232.992188 212.582031 232.914062 212.691406 L 232 213.96875 L 231.96875 213.777344 C 231.945312 213.644531 231.820312 213.554688 231.6875 213.578125 L 230.96875 213.695312 C 230.835938 213.71875 230.746094 213.84375 230.769531 213.976562 L 230.996094 215.367188 L 230.214844 216.457031 C 230.136719 216.566406 230.164062 216.71875 230.273438 216.796875 C 230.378906 216.875 230.53125 216.851562 230.609375 216.742188 L 233.167969 213.171875 L 236.738281 215.730469 C 236.789062 215.769531 236.855469 215.785156 236.917969 215.773438 C 236.980469 215.761719 237.035156 215.730469 237.074219 215.675781 C 237.152344 215.566406 237.128906 215.414062 237.019531 215.335938 Z M 231.285156 214.136719 L 231.527344 214.097656 L 231.597656 214.527344 L 231.398438 214.808594 Z M 231.285156 214.136719 " fill-opacity="1" fill-rule="nonzero"/></g></g></g><g clip-path="url(#c3c622f72c)"><g clip-path="url(#9041537e09)"><g clip-path="url(#3dc51ee652)"><path fill="#ff6949" d="M 233.449219 213.820312 C 233.339844 213.742188 233.1875 213.765625 233.109375 213.875 L 230.882812 216.980469 C 230.847656 217.03125 230.832031 217.097656 230.84375 217.160156 L 231.34375 220.210938 C 231.367188 220.34375 231.492188 220.433594 231.625 220.410156 L 233.578125 220.089844 C 233.710938 220.066406 233.800781 219.941406 233.777344 219.808594 L 233.53125 218.324219 L 234.476562 218.167969 L 234.722656 219.652344 C 234.742188 219.785156 234.867188 219.875 235 219.855469 L 236.953125 219.53125 C 237.085938 219.511719 237.175781 219.386719 237.152344 219.253906 L 236.652344 216.203125 C 236.640625 216.140625 236.605469 216.082031 236.554688 216.046875 Z M 236.636719 219.09375 L 235.160156 219.335938 L 234.917969 217.847656 C 234.894531 217.71875 234.769531 217.628906 234.636719 217.648438 L 233.214844 217.882812 C 233.082031 217.90625 232.992188 218.03125 233.015625 218.164062 L 233.257812 219.648438 L 231.785156 219.890625 L 231.335938 217.179688 L 233.363281 214.355469 L 236.1875 216.382812 Z M 236.636719 219.09375 " fill-opacity="1" fill-rule="nonzero"/></g></g></g><g clip-path="url(#f0b8b398e5)"><g transform="matrix(1, 0, 0, 1, 120, 62)"><g clip-path="url(#fb2746bfb8)"><g clip-path="url(#c9b5e5cf71)"><path fill="#ff6949" d="M 104.933594 45.609375 C 99.558594 49.433594 95.09375 53.539062 92.027344 57.914062 C 91.042969 52.882812 105.730469 39.53125 109.089844 34.617188 C 117.132812 22.855469 118.230469 12.90625 112.699219 0.976562 C 120.792969 8.535156 123.480469 17.640625 119.59375 28.597656 C 117.46875 34.582031 112.566406 40.179688 104.933594 45.609375 Z M 104.933594 45.609375 " fill-opacity="1" fill-rule="nonzero"/></g><path fill="#ff6949" d="M 110.128906 49.988281 C 104.335938 52.714844 98.65625 55.640625 94.539062 60.105469 C 89.636719 65.429688 85.515625 68.054688 80.867188 69.019531 C 86.199219 65.109375 91.542969 59.46875 97.769531 53.980469 C 100.3125 51.734375 105.703125 47.601562 108.488281 45.664062 C 116.242188 40.273438 122.359375 35.34375 126.867188 25.265625 C 128.902344 20.714844 128.886719 15.777344 127.90625 10.824219 C 134.527344 19.339844 135.46875 28.398438 128.5625 36.695312 C 123.703125 42.535156 117.253906 46.632812 110.128906 49.988281 Z M 110.128906 49.988281 " fill-opacity="1" fill-rule="nonzero"/><g clip-path="url(#34a3d08125)"><path fill="#ff6949" d="M 129.109375 49.929688 C 125.03125 53.136719 118.609375 55.113281 111.167969 56.660156 C 105.105469 57.917969 99.519531 59.394531 94.757812 61.144531 C 97.230469 58.621094 104.867188 55.207031 112.480469 51.847656 C 124.679688 46.460938 133.800781 40.722656 138.132812 34.289062 C 137.195312 40.140625 134.691406 45.542969 129.109375 49.929688 Z M 129.109375 49.929688 " fill-opacity="1" fill-rule="nonzero"/></g><g clip-path="url(#f57b4a453b)"><path fill="#ff6949" d="M 110.785156 64.644531 C 102.542969 64.808594 96.40625 64.601562 92.296875 65.410156 C 95.527344 62.933594 100.542969 61.867188 106.738281 60.214844 C 110.746094 59.144531 116.828125 57.933594 122.765625 57.042969 C 129.734375 55.910156 135.167969 53.828125 138.898438 50.699219 C 135.789062 57.242188 130.515625 60.511719 121.980469 63.496094 C 119.351562 64.414062 115.128906 64.558594 110.785156 64.644531 Z M 110.785156 64.644531 " fill-opacity="1" fill-rule="nonzero"/></g><path fill="#ff6949" d="M 86.828125 68.855469 C 88.996094 67.621094 93.1875 67.339844 97.914062 67.289062 C 105.613281 67.203125 112.976562 67.082031 120.460938 66.863281 C 124.601562 66.742188 128.296875 66.171875 131.1875 65.082031 C 127.660156 69.1875 123.503906 72.390625 118.167969 72.683594 C 107.609375 73.269531 97.148438 71.214844 86.828125 68.855469 Z M 86.828125 68.855469 " fill-opacity="1" fill-rule="nonzero"/><path fill="#ff6949" d="M 109.417969 80.234375 C 98.601562 78.230469 89.429688 74.707031 83.765625 70.714844 C 92.671875 71.535156 103.03125 74.140625 115.578125 75.609375 C 116.984375 75.773438 118.410156 75.6875 119.785156 75.359375 C 121.277344 75.003906 122.832031 74.988281 124.296875 74.929688 C 120.371094 78.976562 115.496094 81.359375 109.417969 80.234375 Z M 109.417969 80.234375 " fill-opacity="1" fill-rule="nonzero"/><path fill="#ff6949" d="M 98.53125 84.9375 C 91.890625 81.496094 86.304688 77.382812 81.742188 72.359375 C 89.535156 76.371094 97.144531 79.9375 104.246094 82.285156 C 105.511719 82.707031 106.824219 82.976562 108.15625 83.078125 C 110.738281 83.273438 113.582031 83.632812 116.527344 84.0625 C 111.1875 88.066406 105.316406 88.453125 98.53125 84.9375 Z M 98.53125 84.9375 " fill-opacity="1" fill-rule="nonzero"/><path fill="#ff6949" d="M 92.027344 88.65625 C 87.550781 85.011719 83.976562 80.617188 80.976562 75.746094 C 84.398438 77.355469 88.902344 81.425781 94.105469 85.484375 C 98.789062 89.136719 103.859375 90.890625 108.816406 90.351562 C 104.078125 94.78125 96.542969 93.394531 92.027344 88.65625 Z M 92.027344 88.65625 " fill-opacity="1" fill-rule="nonzero"/><path fill="#ff6949" d="M 98.863281 96.695312 C 94.765625 97.535156 91.015625 96.996094 88.03125 94.289062 C 83.234375 89.9375 80.8125 84.664062 80.320312 78.976562 C 85.691406 86.449219 91.664062 92.765625 98.863281 96.695312 Z M 98.863281 96.695312 " fill-opacity="1" fill-rule="nonzero"/><path fill="#ff6949" d="M 87.757812 98.445312 C 85.125 97.890625 82.683594 96.191406 80.375 93.414062 C 78.050781 90.613281 77.597656 86.910156 78.296875 82.640625 C 80.355469 88.917969 83.457031 94.234375 87.757812 98.445312 Z M 87.757812 98.445312 " fill-opacity="1" fill-rule="nonzero"/><g clip-path="url(#f7d421d109)"><path fill="#ff6949" d="M 34.667969 45.609375 C 27.035156 40.179688 22.132812 34.582031 20.007812 28.597656 C 16.121094 17.640625 18.808594 8.535156 26.902344 0.976562 C 21.371094 12.90625 22.46875 22.855469 30.511719 34.617188 C 33.871094 39.53125 48.558594 52.882812 47.574219 57.917969 C 44.507812 53.542969 40.042969 49.433594 34.667969 45.609375 Z M 34.667969 45.609375 " fill-opacity="1" fill-rule="nonzero"/></g><path fill="#ff6949" d="M 31.113281 45.664062 C 33.894531 47.601562 39.289062 51.734375 41.832031 53.976562 C 48.058594 59.46875 53.402344 65.109375 58.734375 69.019531 C 54.085938 68.050781 49.964844 65.429688 45.058594 60.105469 C 40.945312 55.636719 35.265625 52.714844 29.472656 49.984375 C 22.34375 46.628906 15.898438 42.53125 11.039062 36.695312 C 4.132812 28.394531 5.074219 19.339844 11.695312 10.824219 C 10.714844 15.777344 10.699219 20.714844 12.734375 25.261719 C 17.242188 35.34375 23.359375 40.269531 31.113281 45.664062 Z M 31.113281 45.664062 " fill-opacity="1" fill-rule="nonzero"/><path fill="#ff6949" d="M 44.839844 61.144531 C 40.082031 59.394531 34.492188 57.917969 28.429688 56.660156 C 20.988281 55.113281 14.570312 53.136719 10.492188 49.933594 C 4.910156 45.542969 2.40625 40.140625 1.464844 34.289062 C 5.800781 40.722656 14.921875 46.460938 27.117188 51.847656 C 34.730469 55.207031 42.367188 58.621094 44.839844 61.144531 Z M 44.839844 61.144531 " fill-opacity="1" fill-rule="nonzero"/><g clip-path="url(#0feef29219)"><path fill="#ff6949" d="M 16.835938 57.042969 C 22.769531 57.933594 28.851562 59.144531 32.863281 60.214844 C 39.058594 61.867188 44.074219 62.933594 47.300781 65.410156 C 43.195312 64.601562 37.054688 64.808594 28.816406 64.644531 C 24.472656 64.558594 20.25 64.414062 17.621094 63.496094 C 9.085938 60.511719 3.8125 57.242188 0.703125 50.695312 C 4.433594 53.828125 9.867188 55.90625 16.835938 57.042969 Z M 16.835938 57.042969 " fill-opacity="1" fill-rule="nonzero"/></g><path fill="#ff6949" d="M 41.6875 67.289062 C 46.410156 67.339844 50.605469 67.621094 52.769531 68.855469 C 42.449219 71.21875 31.992188 73.269531 21.429688 72.6875 C 16.09375 72.390625 11.941406 69.1875 8.414062 65.082031 C 11.304688 66.171875 14.996094 66.742188 19.140625 66.863281 C 26.625 67.082031 33.984375 67.207031 41.6875 67.289062 Z M 41.6875 67.289062 " fill-opacity="1" fill-rule="nonzero"/><path fill="#ff6949" d="M 24.023438 75.605469 C 36.566406 74.140625 46.929688 71.535156 55.832031 70.714844 C 50.167969 74.707031 40.996094 78.226562 30.183594 80.230469 C 24.105469 81.359375 19.230469 78.976562 15.304688 74.925781 C 16.769531 74.988281 18.320312 75.003906 19.8125 75.359375 C 21.191406 75.683594 22.613281 75.773438 24.023438 75.605469 Z M 24.023438 75.605469 " fill-opacity="1" fill-rule="nonzero"/><path fill="#ff6949" d="M 35.351562 82.285156 C 42.453125 79.9375 50.0625 76.371094 57.855469 72.359375 C 53.292969 77.382812 47.707031 81.496094 41.066406 84.9375 C 34.28125 88.453125 28.410156 88.066406 23.070312 84.0625 C 26.015625 83.632812 28.859375 83.273438 31.441406 83.078125 C 32.773438 82.976562 34.085938 82.707031 35.351562 82.285156 Z M 35.351562 82.285156 " fill-opacity="1" fill-rule="nonzero"/><path fill="#ff6949" d="M 45.496094 85.484375 C 50.695312 81.425781 55.203125 77.355469 58.621094 75.746094 C 55.625 80.617188 52.050781 85.007812 47.574219 88.65625 C 43.058594 93.394531 35.523438 94.78125 30.785156 90.351562 C 35.742188 90.890625 40.8125 89.136719 45.496094 85.484375 Z M 45.496094 85.484375 " fill-opacity="1" fill-rule="nonzero"/><path fill="#ff6949" d="M 40.738281 96.695312 C 47.9375 92.765625 53.910156 86.449219 59.28125 78.976562 C 58.789062 84.664062 56.367188 89.9375 51.570312 94.289062 C 48.585938 96.996094 44.835938 97.535156 40.738281 96.695312 Z M 40.738281 96.695312 " fill-opacity="1" fill-rule="nonzero"/><path fill="#ff6949" d="M 59.226562 93.414062 C 56.921875 96.191406 54.476562 97.890625 51.84375 98.449219 C 56.144531 94.234375 59.246094 88.917969 61.304688 82.640625 C 62.003906 86.910156 61.554688 90.617188 59.226562 93.414062 Z M 59.226562 93.414062 " fill-opacity="1" fill-rule="nonzero"/><path fill="#ff6949" d="M 42.890625 116.148438 C 49.65625 112.117188 55.75 108.476562 60.066406 103.753906 C 65.367188 97.949219 67.496094 90.601562 67.976562 82.605469 C 66.472656 84.839844 65.417969 88.277344 64.625 92.414062 C 64.5625 86.921875 62.789062 82.296875 61.121094 77.71875 C 59.761719 73.972656 59.503906 69.261719 60.867188 65.136719 C 62.054688 61.550781 63.351562 57.210938 63.566406 52.375 C 63.746094 48.324219 64.78125 44.578125 67.285156 41.144531 C 64.921875 43.5 62.203125 43.816406 59.191406 42.492188 C 61.378906 42.265625 63.078125 41.847656 63.96875 41.109375 C 61.007812 41.203125 58.972656 40.167969 57.914062 37.9375 C 59.347656 38.902344 60.789062 39.421875 62.253906 39.210938 C 61.152344 38.828125 60.304688 38.339844 59.882812 37.679688 C 61.382812 38.199219 63.9375 38.417969 66.226562 37.898438 C 68.636719 37.351562 70.050781 37.160156 71.988281 37.28125 C 75.910156 37.519531 78.308594 39.015625 78.625 42.457031 C 79.589844 42.335938 80.433594 42.625 81.070312 43.441406 C 81.882812 44.488281 81.90625 45.945312 81.507812 47.597656 C 81.183594 46.851562 80.871094 46.273438 80.484375 45.957031 C 79.261719 44.953125 76.253906 44.953125 74.90625 45.777344 C 72.027344 47.527344 70.570312 49.679688 71.039062 53.03125 C 71.125 51.929688 71.363281 50.878906 71.808594 49.894531 C 71.988281 55.109375 75.890625 58.558594 78.261719 64.992188 C 80.136719 70.085938 79.488281 75.378906 77.277344 80.378906 C 75.824219 83.664062 74.875 87.753906 74.503906 92.519531 C 73.902344 88.574219 72.949219 85.160156 71.40625 82.640625 C 71.882812 89.132812 73.5 95.089844 76.765625 100.25 C 80.199219 105.679688 86.453125 110.703125 94.414062 114.945312 C 99.921875 117.882812 104.113281 122.277344 104.605469 126.613281 C 105.386719 133.511719 103.566406 138.539062 99.300781 141.765625 C 100.976562 134.789062 98.957031 128.957031 93.230469 124.589844 C 89.25 121.558594 84.972656 118.191406 81.03125 113.980469 C 75.488281 108.054688 71.523438 98.46875 70.53125 88.710938 C 70.085938 93.117188 70.601562 98.015625 72.335938 103.09375 C 74.53125 109.527344 79.140625 115.90625 84.585938 122.238281 C 89.355469 127.78125 92.808594 134.089844 91.972656 140.78125 C 91.128906 147.496094 87.609375 152.023438 83.21875 154.835938 C 85.660156 151.445312 86.144531 146.855469 84.75 141.820312 C 83.027344 135.59375 80.59375 131.5 77.695312 123.714844 C 74.207031 114.347656 70.453125 106.21875 69.691406 97.953125 C 68.375 107.019531 65.585938 115.113281 62.105469 122.496094 C 59.417969 128.195312 57.238281 133.878906 55.363281 139.265625 C 53.195312 145.480469 53.097656 151.222656 56.457031 154.984375 C 52.996094 153.523438 50.703125 150.140625 48.835938 145.867188 C 45.578125 138.417969 47.351562 130.339844 53.757812 123.148438 C 59.410156 116.804688 62.625 112.511719 65.390625 107.324219 C 68.789062 100.941406 68.964844 94.8125 68.488281 88.65625 C 67.339844 97.316406 65.167969 104.429688 62.144531 108.417969 C 51.96875 121.835938 56.152344 114.996094 44.277344 126.359375 C 40.046875 130.40625 39.28125 134.601562 40.121094 141.964844 C 37.644531 139.796875 35.730469 136.726562 34.722656 132.703125 C 33.054688 126.03125 36.085938 120.207031 42.890625 116.148438 Z M 73.941406 42.21875 C 75.636719 42.839844 76.472656 42.347656 76.472656 42.347656 C 76.472656 42.347656 76.238281 40.214844 71.386719 40.324219 C 71.386719 40.324219 72.246094 41.601562 73.941406 42.21875 Z M 73.941406 42.21875 " fill-opacity="1" fill-rule="nonzero"/><g clip-path="url(#26b2975c88)"><path fill="#ff6949" d="M 69.527344 106.742188 C 71.367188 113.378906 72.546875 120.269531 75.195312 126.578125 C 78.269531 133.890625 79.335938 141.515625 76.875 149.257812 C 75.007812 155.125 70.382812 159.757812 69.527344 164.207031 C 68.667969 159.761719 64.042969 155.125 62.179688 149.257812 C 59.71875 141.515625 60.785156 133.890625 63.855469 126.578125 C 66.507812 120.269531 67.6875 113.378906 69.527344 106.742188 Z M 69.800781 158.480469 C 70.785156 152.792969 73.339844 151.042969 73.15625 139.519531 C 73.054688 133.355469 71.636719 124.355469 69.800781 114.578125 C 67.960938 124.355469 66.542969 133.355469 66.445312 139.519531 C 66.261719 151.042969 68.816406 152.792969 69.800781 158.480469 Z M 69.800781 158.480469 " fill-opacity="1" fill-rule="nonzero"/></g></g></g></g></svg>